<?xml version="1.0" encoding="UTF-8" standalone="no"?>
<!-- Created with Inkscape (http://www.inkscape.org/) -->

<svg
   width="250.00027"
   height="300.00046"
   viewBox="0 0 25.000026 30.000045"
   version="1.1"
   id="svg1"
   inkscape:version="1.4 (86a8ad7, 2024-10-11)"
   sodipodi:docname="logo-simple.svg"
   xmlns:inkscape="http://www.inkscape.org/namespaces/inkscape"
   xmlns:sodipodi="http://sodipodi.sourceforge.net/DTD/sodipodi-0.dtd"
   xmlns:xlink="http://www.w3.org/1999/xlink"
   xmlns="http://www.w3.org/2000/svg"
   xmlns:svg="http://www.w3.org/2000/svg">
  <sodipodi:namedview
     id="namedview1"
     pagecolor="#505050"
     bordercolor="#eeeeee"
     borderopacity="1"
     inkscape:showpageshadow="0"
     inkscape:pageopacity="0"
     inkscape:pagecheckerboard="0"
     inkscape:deskcolor="#505050"
     inkscape:document-units="mm"
     showgrid="true"
     inkscape:zoom="1.3843855"
     inkscape:cx="286.04749"
     inkscape:cy="221.39787"
     inkscape:window-width="1920"
     inkscape:window-height="991"
     inkscape:window-x="-9"
     inkscape:window-y="-9"
     inkscape:window-maximized="1"
     inkscape:current-layer="layer1">
    <inkscape:grid
       id="grid1"
       units="mm"
       originx="-2.5000478"
       originy="1.2052649e-05"
       spacingx="0.5"
       spacingy="0.5"
       empcolor="#0099e5"
       empopacity="0.30196078"
       color="#0099e5"
       opacity="0.14901961"
       empspacing="5"
       enabled="true"
       visible="true" />
  </sodipodi:namedview>
  <defs
     id="defs1">
    <linearGradient
       id="linearGradient11"
       inkscape:collect="always">
      <stop
         style="stop-color:#00ff6e;stop-opacity:1;"
         offset="0"
         id="stop11" />
      <stop
         style="stop-color:#aeff15;stop-opacity:1;"
         offset="1"
         id="stop12" />
    </linearGradient>
    <linearGradient
       inkscape:collect="always"
       xlink:href="#linearGradient11"
       id="linearGradient2"
       x1="6.1611557"
       y1="6.161252"
       x2="23.838779"
       y2="23.838875"
       gradientUnits="userSpaceOnUse"
       gradientTransform="matrix(0.96154017,0,0,1,0.096198,-5.9000018e-5)" />
  </defs>
  <g
     inkscape:label="Layer 1"
     inkscape:groupmode="layer"
     id="layer1"
     transform="translate(-2.500048,1.2000047e-5)">
    <path
       id="path1-2"
       style="fill:url(#linearGradient2);stroke:none;stroke-width:0.490291;stroke-linejoin:round;stroke-dasharray:none;paint-order:stroke fill markers"
       d="M 7.307749,-1.2000018e-5 C 2.500048,-2.6016158e-5 2.500048,4.999941 2.500048,4.999941 v 12.500014 c 0,5 4.807657,4.999954 4.807657,4.999954 l 5.769328,4.5e-5 9.615341,7.50008 -2.8e-5,-7.50008 c 4.8077,0 4.807655,-4.999954 4.807655,-4.999954 l 7.3e-5,-12.4999671 C 27.500103,3.2851494e-5 22.692346,3.2851493e-5 22.692346,3.2851493e-5 Z"
       sodipodi:nodetypes="scscccccscs" />
    <g
       id="g2"
       transform="translate(4.3749117,2.5000001)">
      <path
         style="fill:#ffffff;fill-opacity:1;stroke:none;stroke-width:0.264583;stroke-linejoin:round;paint-order:stroke fill markers"
         d="M 5.0000001,1.078125e-7 V 2.5 h -2.5 V 5 h 2.5 v 10 c 0,0 0,2.5 2.5,2.5 V 5 H 10 V 2.5 H 7.5000001 V 1.078125e-7 Z"
         id="path4"
         sodipodi:nodetypes="ccccccscccccc" />
      <path
         id="path4-7"
         style="fill:#ffffff;fill-opacity:1;stroke:none;stroke-width:0.264583;stroke-linejoin:round;paint-order:stroke fill markers"
         d="M 11.250087,-2.5523564e-8 V 15.000117 c 0,0 -1.53e-4,2.499847 2.499847,2.499847 h 5.000212 l 1.53e-4,-9.9999996 c 0,0 -1.06e-4,-2.499846 -2.500106,-2.499846 H 13.750087 L 13.749934,-2.5523564e-8 Z M 13.750087,7.4999644 h 2.500106 l -1.53e-4,7.5001526 h -2.500106 z"
         sodipodi:nodetypes="ccsccscccccccc" />
    </g>
  </g>
</svg>
